<svg version="1.1" id="Capa_1" xmlns="http://www.w3.org/2000/svg" x="0" y="0" viewBox="0 0 512 512" xml:space="preserve"><style>.st0{fill:#9e2a5e}</style><path class="st0" d="M406.5.8c-11.6-2.3-23.4.2-33.3 7-10 6.9-17 17.6-19 29.5l-20.9 118.4c-6.2-8-15-13.9-25.3-16.1-11.9-2.5-24-.2-34 6.6-2.8 1.9-5.2 4-7.5 6.3-5.6-12.7-16.9-22.7-31-25.7-11.9-2.5-24-.2-34 6.6-2.8 1.9-5.2 4-7.5 6.3-5.6-12.7-16.9-22.7-31-25.7-11.9-2.5-24-.2-34.1 6.6-10.1 6.8-16.8 17.1-18.9 29.1l-10 56.7-13.7 77.9c-.7 4.1 2 8 6.1 8.7.4.1.9.1 1.3.1 3.6 0 6.7-2.6 7.4-6.2l8-45.2c6.7 8.5 16.2 14.1 27 16 2.6.5 5.2.7 7.8.7 9 0 17.8-2.8 25.3-8 2.4-1.7 4.6-3.5 6.5-5.6a44.07 44.07 0 0 0 32.9 25.7c2.6.5 5.1.7 7.7.7 7.7 0 15.2-2 21.8-5.7 1.8 5.1 4.3 10 7.5 14.6 9.1 13.1 22.8 21.8 38.5 24.6l27.1 4.8-8.5 48.2c-.7 4.1 2 8 6.1 8.7.4.1.9.1 1.3.1 3.6 0 6.7-2.6 7.4-6.2l9.8-55.5c.7-4.1-2-8-6.1-8.7l-34.5-6.1c-11.8-2.1-22-8.6-28.9-18.4-6.9-9.8-9.5-21.7-7.4-33.4l2.3-13.1 73.7 13h.2l65.1 11.5-42 238c-1.1 6.3-7.1 10.5-13.5 9.4L112 457.3c-3.1-.5-5.7-2.2-7.5-4.8-1.8-2.5-2.5-5.6-1.9-8.7l7.2-41c.3-2-.1-4-1.2-5.6s-2.9-2.7-4.8-3.1l-9-1.6c-6.6-1.2-11-7.5-9.8-14l10.9-62c.7-4.1-2-8-6.1-8.7-4.1-.7-8 2-8.7 6.1l-10.9 62c-2.6 14.7 7.3 28.8 22 31.4l1.6.3-5.9 33.6c-1.2 7 .3 14.1 4.4 19.9 4.1 5.8 10.2 9.7 17.2 10.9l224.2 39.5c1.6.3 3.1.4 4.6.4 12.7 0 23.9-9.1 26.2-22l65.3-370.5c.7-4.1-2-8-6.1-8.7-4.1-.7-8 2-8.7 6.1l-20.8 117.8-57.8-10.2 2-11.2v-.1L369 39.9c1.4-7.9 6.1-15.1 12.8-19.8 6.5-4.5 14.3-6.1 21.9-4.7 15.6 3.1 26 18.2 23.2 33.9l-6.7 37.9c-.7 4.1 2 8 6.1 8.7 4.1.7 8-2 8.7-6.1l6.7-37.9C445.8 28.4 430 5.4 406.5.8zM182.4 163.3l-9.9 55.9c-2.8 15.9-18.1 26.6-34 23.8-7.7-1.4-14.4-5.6-18.9-12.1-4.5-6.4-6.2-14.2-4.9-21.9l6-34.3 4-22.5c1.4-7.9 5.8-14.7 12.5-19.2 4.9-3.3 10.5-5 16.3-5 2.1 0 4.1.2 6.2.7 15.4 3.2 25.5 18.8 22.7 34.6zm145.1 25.6l-5.8 33-70-12.3c-3-.5-6 .1-8.5 1.9-2.5 1.7-4.2 4.4-4.7 7.3l-2.9 16.7c-.8 4.7-1.1 9.5-.8 14.1-6.6 5.4-15.2 7.7-23.6 6.2-14.1-2.5-24.2-14.6-24.2-28.8 0-1.7.2-3.4.5-5.1l10-56.7c1.4-7.9 5.8-14.7 12.5-19.2s14.7-6 22.5-4.4c15.2 3.2 25.3 18.7 22.6 34.5l-1.9 10.8c-.7 4.1 2 8 6.1 8.7 4.1.7 8-2 8.7-6.1l1.9-10.6v-.1-.1l.1-.7c1.4-7.9 5.8-14.7 12.5-19.2s14.7-6 22.5-4.4c15.1 3.1 25.3 18.7 22.5 34.5z"/><path class="st0" d="M187.6 301.9l-7.3-1.3 4.1-10.7c1.1-8-11.9-9.2-13.6-5l-5.1 13.2-10.6-1.9 4.1-10.6c1.4-8.1-12-9.2-13.6-5.1l-5 13.2-9.7-1.7c-5.7-1-8.5 11.4-2.3 12.5l7.4 1.3-4 10.3-9.6-1.7c-5.8-1-8.4 11.4-2.3 12.5l7.3 1.3-4.7 12.3c-.7 3.9 5.1 8.1 11.1 6.6 1.4-.4 2.3-.9 2.7-1.7l5.6-14.6 10.6 1.9L148 345c-.7 4 5.5 8.1 11.1 6.6 1.4-.4 2.2-1 2.6-1.7l5.6-14.5 9.6 1.7c1.2.2 2.4-.2 3.5-1.2 3.8-3.3 2.7-10.5-1.2-11.2l-7.3-1.3 4-10.3 9.6 1.7c1.2.2 2.3-.2 3.5-1.2 3.4-3.7 2.5-11-1.4-11.7zm-30.5 18.6l-10.6-1.9 4-10.3 10.6 1.9-4 10.3zM213.9 287.7l-15.2 5.9c-7.2 2.7-4.1 15 2.7 12l3.3-1.3-9.3 52.9c-.3 1.6.3 3 1.7 4.1 1.4 1.1 3.3 1.9 5.5 2.3 2.2.4 4.2.3 5.9-.3 1.7-.6 2.8-1.7 3-3.3l11.7-66.1c.9-4.3-5.9-7.6-9.3-6.2zM192.2 398.8c2-11.1-3.4-17.8-16.1-20l-18.3-3.2c-1.5-.3-2.8-.1-4 .4-1.2.5-1.9 1.4-2.1 2.6l-10.9 61.6c-.2 1 .2 2 1 2.9.9.9 2.1 1.5 3.7 1.8l20.1 3.5c5.8 1 10.7.2 14.7-2.3 4-2.6 6.6-7.4 7.8-14.4l.4-2c.8-4.4.6-7.9-.7-10.5-1.2-2.6-3.4-4.8-6.3-6.6 5.7-1.5 9.3-6.1 10.7-13.8zm-15.9 28.1l-.3 1.5c-1.2 6.9-4.9 9.8-11 8.7l-10.7-1.9 3.9-21.9 10.7 1.9c3 .5 5.2 1.7 6.4 3.6 1.3 1.9 1.6 4.6 1 8.1zm3.2-28.1c-.4 2.5-1.4 4.4-3 5.6-1.6 1.2-3.6 1.6-6 1.2l-10.6-1.9 2.8-16.1 10.5 1.9c2.4.4 4.1 1.5 5.3 3.1 1.1 1.6 1.4 3.7 1 6.2zM228.4 388l-18.8-3.3c-1.1-.2-2.1 0-3 .6-.9.6-1.4 1.4-1.6 2.5l-10.9 61.6c-.2 1.2.2 2.3 1.3 3.2 1.1.9 2.5 1.5 4.1 1.8 1.7.3 3.2.2 4.5-.3 1.3-.5 2.1-1.3 2.3-2.5l4.4-24.7 8 1.4 8.8 28.5c.7 2.1 1.9 3.4 3.7 3.7 1.8.3 3.7 0 5.6-1.1 1.9-1.1 3-2.4 3.2-4 .1-.6 0-1.2-.2-1.6l-8.3-25.2c4-.5 7.4-2.1 10.2-4.8 2.8-2.8 4.7-6.7 5.6-11.9 2.3-13.3-4-21.2-18.9-23.9zm6.4 22.8c-1.2 6.7-5.1 9.4-11.9 8.3l-10.4-1.8L216 397l10.4 1.8c6.8 1.2 9.6 5.2 8.4 12zM296.3 405.4c-3.4-4.2-8.5-6.9-15.3-8.1-6.8-1.2-12.4-.4-17.1 2.4-4.6 2.8-7.6 7.9-8.9 15.4l-4.7 26.4c-1.3 7.5-.3 13.4 3.1 17.5 3.4 4.2 8.5 6.9 15.2 8.1 6.8 1.2 12.5.4 17.1-2.4 4.7-2.8 7.6-7.9 9-15.4l4.7-26.4c1.4-7.5.3-13.3-3.1-17.5zm-9.2 15.4l-4.7 26.4c-1.3 7.3-5.2 10.3-11.9 9.1-6.6-1.2-9.2-5.4-7.9-12.6l4.7-26.4c1.3-7.3 5.2-10.3 11.8-9.2 6.6 1.2 9.3 5.4 8 12.7z"/></svg>