<svg version="1.1" id="Capa_1" xmlns="http://www.w3.org/2000/svg" x="0" y="0" viewBox="0 0 512 512" xml:space="preserve"><style>.st0{fill:#9e2a5e}</style><path class="st0" d="M162.4 127.6c-1.7-1.4-4-2.3-6.4-2.3-5.5 0-10 4.5-10 10 0 4.7 3.3 8.7 7.6 9.7.8.2 1.6.3 2.4.3 5.5 0 10-4.5 10-10 0-3.1-1.4-5.8-3.6-7.7zM315.3 171c-1.2-3.6-4.3-6.3-8.1-6.8L278 160l-13-26.5c-1.7-3.4-5.2-5.6-9-5.6s-7.3 2.2-9 5.6L234 160l-29.2 4.2c-3.8.5-6.9 3.2-8.1 6.8-1.2 3.6-.2 7.6 2.5 10.3l21.1 20.6-5 29.1c-.6 3.8.9 7.5 4 9.8 3.1 2.2 7.2 2.5 10.5.8l26.1-13.7 26.1 13.7c3.3 1.8 7.4 1.5 10.5-.8 3.1-2.2 4.6-6 4-9.8l-5-29.1 21.1-20.6c2.9-2.7 3.9-6.7 2.7-10.3zm-41.4 20.3c-2.4 2.3-3.4 5.6-2.9 8.9l2.5 14.3-12.9-6.8c-2.9-1.5-6.4-1.5-9.3 0l-12.9 6.8 2.5-14.3c.6-3.2-.5-6.6-2.9-8.9l-10.4-10.1L242 179c3.3-.5 6.1-2.5 7.5-5.5l6.4-13 6.4 13c1.5 3 4.3 5 7.5 5.5l14.4 2.1-10.3 10.2z"/><path class="st0" d="M256 65.3c-50.2 0-80.6 31.4-81.3 31.8-4.1 3.7-4.4 10-.7 14.1s10 4.4 14.1.7c20-18.1 43.8-26.6 67.8-26.6 55.1 0 100 44.9 100 100 0 55-44.6 100-100 100-56.6 0-102.7-47.3-99.9-105.1.1-1.7.2-3.4.4-5.1.5-5.5-3.5-10.4-9-10.9s-10.4 3.5-10.9 9c-.2 2-.3 4-.5 6-3.2 69.2 52 126.1 120 126.1 66.7 0 120-54.3 120-120 0-66.2-53.8-120-120-120z"/><path class="st0" d="M439.2 179.2l-27.6-35.6 6.1-44.6c.6-4.5-1.9-8.9-6.1-10.6l-41.7-17-17-41.7c-1.7-4.2-6.1-6.8-10.6-6.1l-44.6 6.1-35.6-27.6c-3.6-2.8-8.6-2.8-12.3 0l-35.6 27.6-44.6-6.1c-4.5-.6-8.9 1.9-10.6 6.1l-17 41.7-41.7 17c-4.2 1.7-6.7 6.1-6.1 10.6l6.1 44.6-27.6 35.6c-2.8 3.6-2.8 8.6 0 12.3l27.6 35.6-6.1 44.6c-.6 4.5 1.9 8.9 6.1 10.6l41.7 17 17 41.7c1.7 4.2 6.1 6.8 10.6 6.1l16.3-2.2V502c0 4 2.4 7.7 6.2 9.2 3.7 1.5 8 .7 10.9-2.2l52.9-52.9 52.9 52.9c2.9 2.9 7.2 3.7 10.9 2.2s6.2-5.2 6.2-9.2V344.8l16.3 2.2c4.5.6 8.9-1.9 10.6-6.1l17-41.7 41.7-17c4.2-1.7 6.7-6.1 6.1-10.6l-6.1-44.6 27.6-35.6c2.9-3.6 2.9-8.6.1-12.2zM306 477.9L263.1 435c-3.9-3.9-10.2-3.9-14.1 0l-43 42.9V342.1l8.3-1.1 35.6 27.6c1.8 1.4 4 2.1 6.1 2.1 2.2 0 4.3-.7 6.1-2.1l35.6-27.6 8.3 1.1v135.8zm87.2-259.8c-1.6 2.1-2.4 4.8-2 7.5l5.6 41.1-38.4 15.7c-2.5 1-4.5 3-5.5 5.5l-15.7 38.4-17.4-2.4c-1.6-.7-3.3-.9-5.2-.7l-18.5-2.5c-2.7-.4-5.4.4-7.5 2L256 348l-32.8-25.4c-2.1-1.6-4.8-2.4-7.5-2l-41.1 5.6-15.6-38.4c-1-2.5-3-4.5-5.5-5.5l-38.4-15.7 5.6-41.1c.4-2.7-.4-5.4-2-7.5l-25.4-32.8 25.4-32.8c1.6-2.1 2.4-4.8 2-7.5l-5.6-41.1 38.4-15.7c2.5-1 4.5-3 5.5-5.5l15.7-38.4 41.1 5.6c2.7.4 5.4-.4 7.5-2L256 22.7l32.8 25.4c2.1 1.6 4.8 2.4 7.5 2l41.1-5.6L353 82.8c1 2.5 3 4.5 5.5 5.5l38.4 15.7-5.6 41.1c-.4 2.7.4 5.4 2 7.5l25.4 32.8-25.5 32.7z"/></svg>