<?xml version="1.0" standalone="no"?>
<!DOCTYPE svg PUBLIC "-//W3C//DTD SVG 20010904//EN"
 "http://www.w3.org/TR/2001/REC-SVG-20010904/DTD/svg10.dtd">
<svg version="1.0" xmlns="http://www.w3.org/2000/svg"
 width="849.000000pt" height="550.000000pt" viewBox="0 0 849.000000 550.000000"
 preserveAspectRatio="xMidYMid meet">

<g transform="translate(0.000000,550.000000) scale(0.100000,-0.100000)"
fill="#E4E4E4" stroke="none">
<path d="M3906 5489 c-276 -36 -542 -166 -741 -364 -176 -174 -286 -367 -352
-617 l-28 -103 -3 -1377 -3 -1378 236 0 235 0 0 600 0 600 830 0 830 0 0 -600
0 -600 235 0 236 0 -4 1363 c-3 1232 -5 1369 -20 1437 -43 190 -121 369 -225
513 -76 107 -249 269 -355 336 -259 160 -570 228 -871 190z m369 -453 c90 -24
232 -98 307 -160 142 -118 247 -282 295 -464 l27 -97 4 -512 4 -513 -831 0
-831 0 0 493 c0 441 2 501 19 582 72 345 335 614 672 685 63 13 263 5 334 -14z"/>
<path d="M0 3549 l0 -1900 723 4 c690 3 726 5 807 24 273 67 490 205 645 411
140 187 213 381 230 617 27 355 -150 742 -430 945 -47 35 -85 66 -85 71 0 5
20 31 44 58 101 114 184 266 228 416 20 70 23 101 22 250 -1 154 -3 178 -27
258 -56 184 -135 317 -261 443 -180 179 -383 273 -636 294 -63 5 -373 10 -687
10 l-573 0 0 -1901z m1260 1450 c300 -48 516 -383 445 -688 -37 -155 -153
-305 -285 -369 -117 -57 -168 -63 -577 -60 l-368 3 -3 550 c-1 303 0 556 3
563 6 16 687 17 785 1z m155 -1574 c115 -24 226 -85 314 -174 137 -137 191
-261 199 -452 5 -141 -9 -205 -75 -339 -88 -179 -260 -316 -448 -355 -55 -12
-162 -15 -502 -15 l-433 0 0 675 0 675 438 0 c345 0 452 -3 507 -15z"/>
<path d="M5950 3551 l0 -1901 235 0 235 0 2 628 3 627 450 2 450 3 295 -620
295 -620 264 0 c206 0 262 3 258 13 -3 6 -147 308 -322 671 -174 362 -315 659
-313 660 2 1 41 24 88 50 378 216 578 569 597 1051 10 258 -32 468 -137 680
-170 347 -472 557 -910 632 -67 12 -235 16 -787 20 l-703 5 0 -1901z m1335
1449 c311 -35 539 -185 650 -425 81 -175 102 -403 58 -625 -69 -350 -331 -565
-732 -600 -64 -6 -278 -9 -476 -8 l-360 3 -3 833 -2 832 387 0 c214 0 429 -5
478 -10z"/>
<path d="M2394 1072 c-53 -34 -74 -69 -74 -125 0 -43 4 -54 34 -81 23 -22 58
-39 109 -54 79 -23 127 -62 127 -103 0 -41 -29 -78 -71 -91 -36 -10 -49 -9
-98 8 -50 17 -58 24 -79 67 -12 26 -27 47 -33 47 -15 0 -1 -122 15 -132 18
-12 104 -28 149 -28 89 0 177 73 177 147 0 74 -43 113 -164 148 -76 22 -106
51 -106 104 0 58 36 84 107 79 60 -5 87 -24 103 -74 7 -19 16 -34 21 -34 14 0
11 118 -3 126 -7 5 -51 10 -98 12 -71 3 -90 0 -116 -16z"/>
<path d="M5790 1065 c-90 -53 -125 -128 -118 -255 8 -137 79 -216 205 -227
159 -14 263 87 263 258 0 96 -33 169 -98 214 -39 26 -53 30 -125 33 -73 2 -87
0 -127 -23z m190 -21 c113 -68 119 -346 8 -414 -46 -28 -115 -27 -159 3 -95
62 -119 286 -41 379 49 58 126 71 192 32z"/>
<path d="M2940 1020 c0 -71 15 -78 32 -15 14 51 27 58 99 53 l44 -3 0 -215 0
-214 -32 -10 c-60 -17 -34 -26 72 -26 104 0 138 12 70 24 l-35 7 0 220 0 220
62 -3 63 -3 16 -45 c24 -66 39 -63 39 9 l0 61 -215 0 -215 0 0 -60z"/>
<path d="M3630 1070 c0 -5 10 -10 23 -10 44 0 47 -14 47 -197 0 -134 3 -181
15 -203 37 -72 178 -103 264 -58 81 42 85 54 91 261 l5 182 33 10 c55 16 36
25 -53 25 -47 0 -85 -2 -85 -5 0 -3 16 -11 35 -19 l35 -15 0 -164 c0 -154 -1
-166 -23 -198 -30 -44 -60 -59 -124 -59 -41 0 -58 5 -82 26 -42 35 -51 77 -51
245 0 154 4 169 47 169 13 0 23 5 23 10 0 6 -40 10 -100 10 -60 0 -100 -4
-100 -10z"/>
<path d="M4425 1070 c3 -5 14 -10 24 -10 38 0 42 -20 39 -231 l-3 -203 -32
-10 c-71 -20 -31 -28 120 -24 131 3 158 7 192 25 87 46 125 113 125 221 0 116
-54 194 -159 230 -43 15 -315 16 -306 2z m251 -25 c53 -15 90 -48 120 -105 26
-49 26 -180 0 -233 -31 -62 -68 -81 -163 -86 l-83 -3 0 214 c0 118 3 218 7
221 11 12 67 8 119 -8z"/>
<path d="M5185 1070 c3 -5 14 -10 24 -10 38 0 42 -20 39 -231 l-3 -203 -32
-10 c-59 -16 -35 -26 67 -26 97 0 128 11 73 25 -15 3 -31 12 -35 18 -12 19
-10 385 2 408 6 11 21 19 35 19 14 0 25 5 25 10 0 6 -40 10 -101 10 -64 0 -98
-4 -94 -10z"/>
</g>
</svg>
